<?xml version="1.0" encoding="UTF-8"?>
<svg width="32px" height="32px" viewBox="0 0 32 32" version="1.1" xmlns="http://www.w3.org/2000/svg" xmlns:xlink="http://www.w3.org/1999/xlink">
    <!-- Generator: Sketch 45.2 (43514) - http://www.bohemiancoding.com/sketch -->
    <title>app-icon</title>
    <desc>Created with Sketch.</desc>
    <defs></defs>
    <g id="Assets" stroke="none" stroke-width="1" fill="none" fill-rule="evenodd">
        <g id="app-icon">
            <g id="App-icon">
                <path d="M14,8.8817842e-16 L26,-7.89136551e-16 L26,-1.77635684e-15 C29.3137085,-2.38508215e-15 32,2.6862915 32,6 L32,26 L32,26 C32,29.3137085 29.3137085,32 26,32 L6,32 L6,32 C2.6862915,32 4.05812251e-16,29.3137085 0,26 L0,14 L14,8.8817842e-16 Z" id="Mask" fill="#4DBA87"></path>
                <path d="M6,0 L14,0 L0,14 L0,6 L8.8817842e-16,6 C4.82366169e-16,2.6862915 2.6862915,1.4968968e-15 6,8.8817842e-16 Z" id="Rectangle" fill="#435466"></path>
                <path d="M20.352,21.168 C18.848,24.528 16.864,26.352 15.008,26.352 C13.312,26.352 12.224,25.488 11.648,24.08 C11.36,24.752 11.008,25.52 10.72,26.192 C10.592,26.512 10.4,26.544 10.208,26.288 C9.728,25.648 9.408,24.72 10.048,22.768 C10.912,20.112 17.184,8.272 19.392,5.2 C19.68,4.784 19.936,4.784 20.192,5.232 C20.672,6.128 20.672,7.568 19.36,9.968 C18.88,10.864 17.504,13.072 16.512,14.832 C17.44,14 18.432,13.488 19.264,13.488 C21.984,13.488 22.112,17.264 20.352,21.168 Z M18.1731466,15.8976631 C17.6058832,15.8469403 17.0116072,16.1259159 16.2012308,16.9121198 C14.9856663,18.1041064 13.6890642,20.209104 12.6896,22.1619331 C12.7436251,22.8974141 13.0947882,23.7089795 13.8241269,23.861148 C14.769566,24.0640393 16.012143,23.3031968 17.5788706,20.3612725 C19.1185857,17.4954324 18.7944351,15.9483859 18.1731466,15.8976631 Z" id="b" fill="#FFFFFF"></path>
            </g>
        </g>
    </g>
</svg>