<?xml version="1.0" encoding="UTF-8"?>
<svg width="24px" height="24px" viewBox="0 0 24 24" version="1.1" xmlns="http://www.w3.org/2000/svg" xmlns:xlink="http://www.w3.org/1999/xlink">
    <!-- Generator: Sketch 45 (43475) - http://www.bohemiancoding.com/sketch -->
    <title>svg/help</title>
    <desc>Created with Sketch.</desc>
    <defs></defs>
    <g id="Assets" stroke="none" stroke-width="1" fill="none" fill-rule="evenodd">
        <g id="svg/help">
            <path d="M12,18.5 C11.1715729,18.5 10.5,17.8284271 10.5,17 C10.5,16.1715729 11.1715729,15.5 12,15.5 C12.8284271,15.5 13.5,16.1715729 13.5,17 C13.5,17.8284271 12.8284271,18.5 12,18.5 Z M8.10000038,10.3827729 C8.11048835,9.81642261 8.2075006,9.29727596 8.39104005,8.82531737 C8.5745795,8.35335879 8.83153088,7.94433415 9.16190189,7.59823119 C9.4922729,7.25212823 9.89080972,6.98206709 10.3575243,6.78803967 C10.8242389,6.59401225 11.3460075,6.497 11.9228458,6.497 C12.6674916,6.497 13.2888944,6.59925616 13.7870729,6.80377155 C14.2852514,7.00828693 14.6864102,7.26261635 14.9905613,7.56676744 C15.2947123,7.87091853 15.5123344,8.19866263 15.643434,8.55000958 C15.7745336,8.90135652 15.8400825,9.22910062 15.8400825,9.53325171 C15.8400825,10.0366742 15.7745336,10.4509427 15.643434,10.7760698 C15.5123344,11.1011968 15.3497734,11.3791238 15.1557459,11.6098591 C14.9617185,11.8405944 14.7467184,12.0372409 14.5107391,12.1998044 C14.2747598,12.3623679 14.0518938,12.524929 13.8421344,12.6874925 C13.6323751,12.850056 13.4462164,13.0362146 13.2836529,13.245974 C13.1210894,13.4557334 13.0188332,13.7179287 12.9768814,14.0325677 L12.9768814,14.6303789 L10.8530784,14.6303789 L10.8530784,13.9224446 C10.8845423,13.4714619 10.9710667,13.0939007 11.1126543,12.7897497 C11.2542419,12.4855986 11.4194249,12.2260252 11.6082083,12.0110219 C11.7969917,11.7960185 11.9962602,11.6098599 12.2060195,11.4525404 C12.4157789,11.2952208 12.6098034,11.1379037 12.7880989,10.9805841 C12.9663943,10.8232646 13.1106017,10.6502157 13.2207254,10.4614323 C13.3308491,10.2726489 13.3806662,10.0366731 13.3701782,9.75349795 C13.3701782,9.2710514 13.2521903,8.91446581 13.0162111,8.68373051 C12.7802318,8.4529952 12.4524877,8.33762927 12.0329689,8.33762927 C11.7497938,8.33762927 11.5059522,8.39269028 11.3014368,8.50281395 C11.0969214,8.61293762 10.9291164,8.75976698 10.7980168,8.94330643 C10.6669172,9.12684588 10.5699049,9.34184601 10.5069771,9.58831327 C10.4440493,9.83478053 10.4125859,10.0995978 10.4125859,10.3827729 L8.10000038,10.3827729 Z" id="Combined-Shape" fill="#FF00FF"></path>
            <circle id="Oval" stroke="#FF00FF" stroke-width="2" cx="12" cy="12" r="11"></circle>
        </g>
        <g id="Annotations" transform="translate(-972.000000, -214.000000)"></g>
    </g>
</svg>