<?xml version="1.0" encoding="UTF-8"?>
<svg width="24px" height="24px" viewBox="0 0 24 24" version="1.1" xmlns="http://www.w3.org/2000/svg" xmlns:xlink="http://www.w3.org/1999/xlink">
    <!-- Generator: Sketch 45 (43475) - http://www.bohemiancoding.com/sketch -->
    <title>svg/power</title>
    <desc>Created with Sketch.</desc>
    <defs></defs>
    <g id="Assets" stroke="none" stroke-width="1" fill="none" fill-rule="evenodd">
        <g id="svg/power">
            <path d="M17.6568542,17.2426407 C20.7810486,14.1184464 20.7810486,9.05312652 17.6568542,5.92893219 L19.0710678,4.51471863 C22.9763107,8.41996154 22.9763107,14.7516113 19.0710678,18.6568542 C15.1658249,22.5620972 8.83417511,22.5620972 4.92893219,18.6568542 C1.02368927,14.7516113 1.02368927,8.41996154 4.92893219,4.51471863 L6.34314575,5.92893219 C3.21895142,9.05312652 3.21895142,14.1184464 6.34314575,17.2426407 C9.46734008,20.366835 14.5326599,20.366835 17.6568542,17.2426407 Z M19.0710678,18.6568542 C15.1658249,22.5620972 8.83417511,22.5620972 4.92893219,18.6568542 C1.02368927,14.7516113 1.02368927,8.41996154 4.92893219,4.51471863 L6.34314575,5.92893219 C3.21895142,9.05312652 3.21895142,14.1184464 6.34314575,17.2426407 C9.46734008,20.366835 14.5326599,20.366835 17.6568542,17.2426407 C20.7810486,14.1184464 20.7810486,9.05312652 17.6568542,5.92893219 L19.0710678,4.51471863 C22.9763107,8.41996154 22.9763107,14.7516113 19.0710678,18.6568542 Z" id="Oval-8" fill="#FF00FF" fill-rule="nonzero"></path>
            <path d="M12,1 L12,11" id="Path" stroke="#FF00FF" stroke-width="2"></path>
        </g>
        <g id="Annotations" transform="translate(-1012.000000, -214.000000)"></g>
    </g>
</svg>